<svg width="32" height="25" fill="none" xmlns="http://www.w3.org/2000/svg"><path d="M9.625 7.875c-.984 0-1.75.82-1.75 1.75 0 .984.766 1.75 1.75 1.75.93 0 1.75-.766 1.75-1.75 0-.93-.82-1.75-1.75-1.75zM15.75 0C7.055 0 0 7.055 0 15.75c0 2.898.766 5.633 2.133 7.93.273.547.875.875 1.476.875h24.227c.602 0 1.203-.328 1.531-.875 1.313-2.297 2.133-5.032 2.133-7.93C31.5 7.055 24.445 0 15.75 0zm0 21.875c-1.258 0-2.188-.93-2.188-2.188 0-1.203.93-2.187 2.188-2.187 1.203 0 2.188.984 2.188 2.188 0 1.257-.985 2.187-2.188 2.187zm11.594 0h-7.328c.328-.656.547-1.367.547-2.188 0-.328-.055-.656-.165-.984l5.032-2.133c.656-.328.984-1.093.71-1.75-.328-.656-1.093-.984-1.75-.71l-5.195 2.242c-.875-.875-2.133-1.477-3.445-1.477-2.68 0-4.813 2.188-4.813 4.813 0 .82.165 1.53.547 2.187H4.102c-.985-1.86-1.477-3.938-1.477-6.125 0-7.219 5.852-13.125 13.125-13.125 7.219 0 13.125 5.906 13.125 13.125 0 2.188-.547 4.266-1.531 6.125zM7 14c-.984 0-1.75.82-1.75 1.75 0 .984.766 1.75 1.75 1.75.93 0 1.75-.766 1.75-1.75C8.75 14.82 7.93 14 7 14zm8.75-8.75C14.766 5.25 14 6.07 14 7c0 .984.766 1.75 1.75 1.75.93 0 1.75-.766 1.75-1.75 0-.93-.82-1.75-1.75-1.75zm6.125 2.625c-.984 0-1.75.82-1.75 1.75 0 .984.766 1.75 1.75 1.75.93 0 1.75-.766 1.75-1.75 0-.93-.82-1.75-1.75-1.75z" fill="#5C8EE6"/></svg>