<svg width="21" height="24" fill="none" xmlns="http://www.w3.org/2000/svg"><path d="M18.14 13.828l-.75-3.234c-.328-1.36-1.5-2.344-2.906-2.344H6.375c-1.406 0-2.625.984-2.953 2.344l-.75 3.328A3.47 3.47 0 00.75 17.016v2.578c0 .937.61 1.781 1.5 2.062v1.594c0 .422.328.75.75.75.375 0 .75-.328.75-.75v-1.5h13.5v1.5c0 .422.328.75.75.75.375 0 .75-.328.75-.75v-1.594c.89-.281 1.453-1.125 1.5-2.062v-2.578c0-1.36-.844-2.625-2.11-3.188zM4.876 10.922c.188-.656.797-1.172 1.5-1.172h8.11c.703 0 1.312.516 1.453 1.172l.609 2.578H4.312l.563-2.578zm13.875 8.672c0 .375-.328.656-.703.656H2.907a.64.64 0 01-.657-.656v-2.578c0-1.078.89-2.016 1.969-2.016h12.515c1.078 0 2.016.938 2.016 2.016v2.578zm-3-3.094a1.11 1.11 0 00-1.125 1.125c0 .656.469 1.125 1.125 1.125a1.11 1.11 0 001.125-1.125A1.14 1.14 0 0015.75 16.5zm-10.5 0a1.11 1.11 0 00-1.125 1.125c0 .656.469 1.125 1.125 1.125a1.11 1.11 0 001.125-1.125A1.14 1.14 0 005.25 16.5zm-1.5-9c1.219 0 2.297-.563 2.953-1.453h7.547c.656.89 1.734 1.453 3 1.453A3.73 3.73 0 0021 3.75 3.761 3.761 0 0017.25 0a3.62 3.62 0 00-3 1.547H6.703A3.598 3.598 0 003.75 0 3.731 3.731 0 000 3.75C0 5.86 1.64 7.5 3.75 7.5zM1.594 3c.328-.844 1.172-1.5 2.156-1.5.656 0 1.313.375 1.781.938.282.374.703.609 1.172.609h7.547c.469 0 .89-.235 1.172-.61.469-.562 1.125-.937 1.828-.937.938 0 1.781.656 2.11 1.5h-2.11v1.5h2.11c-.329.89-1.172 1.5-2.11 1.5-.703 0-1.36-.328-1.828-.89-.281-.376-.703-.563-1.172-.563H6.703c-.469 0-.89.187-1.172.562C5.063 5.672 4.406 6 3.75 6c-.984 0-1.828-.61-2.156-1.5H3.75V3H1.594z" fill="#5C8EE6"/></svg>