<svg width="25" height="24" fill="none" xmlns="http://www.w3.org/2000/svg"><path d="M19.34 9.375L16.667 12H7.245l7.406-7.36a.736.736 0 000-1.03.713.713 0 00-1.078 0l-12.047 12c-1.781 1.828-2.11 4.78-.422 6.75C2.089 23.437 3.402 24 4.761 24a4.786 4.786 0 003.422-1.406l12.235-12.188a.736.736 0 000-1.031.714.714 0 00-1.079 0zM7.151 21.563a3.49 3.49 0 01-2.39.937c-.985 0-1.876-.422-2.532-1.125-1.125-1.313-.938-3.375.375-4.688l3.14-3.187h9.422l-8.015 8.063zm16.64-13.079l-8.25-8.25A.753.753 0 0015.027 0a.777.777 0 00-.563.234.798.798 0 000 1.079l8.25 8.25c.141.14.329.187.563.187.187 0 .375-.047.515-.188.282-.28.282-.796 0-1.078z" fill="#5C8EE6"/></svg>