<svg width="20" height="24" fill="none" xmlns="http://www.w3.org/2000/svg"><path d="M9.274.61a.754.754 0 00-.89-.563.72.72 0 00-.563.89L8.9 6.329c.422 2.25-.375 3.89-2.39 4.781l-.47.188.423 10.594c0 .187-.047.375-.188.468-.047.094-.14.141-.281.141H4.587a.426.426 0 01-.328-.14.698.698 0 01-.188-.422l.422-10.641-.469-.188c-2.015-.937-2.812-2.53-2.39-4.734L2.759.937c.047-.421-.188-.796-.61-.89-.375-.094-.797.187-.89.562L.134 6.094c-.516 2.718.468 4.875 2.812 6.14l-.375 9.657a2.3 2.3 0 00.563 1.5c.375.422.89.609 1.453.609h1.406c.563 0 1.031-.188 1.406-.61.375-.421.563-.984.563-1.546l-.375-9.61c2.297-1.218 3.328-3.468 2.812-6.187L9.274.609zM17.852 0c-1.5 0-4.03 2.063-5.156 4.734-.797 1.875-1.594 5.579 2.063 9.563l-.329 7.453a2.158 2.158 0 00.61 1.688 1.85 1.85 0 001.312.562h1.22c1.077 0 1.968-.938 1.968-2.156V1.828C19.54.844 18.79 0 17.852 0zm.188 21.844c0 .422-.281.656-.469.656h-1.219a.358.358 0 01-.234-.094c-.14-.14-.187-.375-.187-.562l.374-8.11-.234-.234c-3.14-3.281-2.812-6.234-2.016-8.156 1.08-2.485 3.189-3.844 3.797-3.844.047 0 .188.14.188.328v20.016zM3.743 8.25h.047a.69.69 0 00.703-.703l.375-6.75c.047-.375-.281-.75-.703-.75-.375-.047-.75.281-.75.703L3.04 7.5c-.047.375.281.75.703.75zm3.047 0c.422 0 .75-.375.703-.75L7.118.75c0-.422-.328-.75-.75-.703-.422 0-.75.375-.703.75l.375 6.75c0 .422.328.703.75.703z" fill="#5C8EE6"/></svg>