<svg width="30" height="24" fill="none" xmlns="http://www.w3.org/2000/svg"><path d="M15.797 12.75c-1.64 0-3.563.656-4.922 1.64-1.125.797-2.063 1.594-4.875 1.594H3c-1.688 0-3 1.454-3 3.235C0 20.953 1.313 22.5 3 22.5h3l2.672.703c1.5.469 3.047.797 5.062.797C18.891 24 24 21.422 24 17.578c0-3.187-3.984-4.828-8.203-4.828zM5.25 21H3c-.797 0-1.5-.844-1.5-1.781 0-.985.656-1.735 1.5-1.735h2.25V21zm3.797.75l-2.297-.563v-3.75c2.578-.14 3.75-.937 4.828-1.687 4.266-3.047 10.922-.89 10.922 1.828 0 2.906-5.719 6.469-13.453 4.172zM19.734 0c-2.062 0-3.562.375-5.062.844L12 1.5H9c-1.688 0-3 1.547-3 3.328 0 1.828 1.313 3.234 3 3.234h3c2.813 0 3.75.797 4.875 1.594 1.36.938 3.281 1.594 4.922 1.594C26.016 11.25 30 9.656 30 6.469 30 2.625 24.984 0 19.734 0zM11.25 6.563H9c-.844 0-1.5-.75-1.5-1.735C7.5 3.891 8.203 3 9 3h2.25v3.563zM21.797 9.75c-1.313 0-2.906-.563-4.031-1.36-1.125-.75-2.297-1.64-5.016-1.828V2.86l2.344-.609c1.406-.375 2.765-.75 4.64-.75 2.438 0 8.766 1.219 8.766 4.969 0 2.156-3.375 3.281-6.703 3.281z" fill="#5C8EE6"/></svg>