<svg width="30" height="24" fill="none" xmlns="http://www.w3.org/2000/svg"><path d="M29.881 5.549a2.213 2.213 0 00-1.078-1.266L20.506.065a.802.802 0 00-.937.234c-.75 1.078-2.625 1.781-4.594 1.781-1.922 0-3.797-.703-4.547-1.781a.801.801 0 00-.937-.234L1.194 4.283c-.516.282-.89.703-1.078 1.266a2.203 2.203 0 00.093 1.64l2.297 4.735c.516 1.031 1.828 1.453 2.86.984l2.156-.937v9.844c0 1.218.937 2.156 2.156 2.156h10.64c1.22 0 2.204-.938 2.204-2.156l-.047-9.844 2.11.89c1.078.516 2.39.094 2.906-.984l2.297-4.687a2.203 2.203 0 00.093-1.641zm-1.453.984l-2.25 4.688c-.187.328-.61.469-.937.281l-3.188-1.36a.748.748 0 00-.703.095c-.234.14-.375.374-.375.609l.047 10.969c0 .375-.328.656-.703.656H9.679a.64.64 0 01-.657-.656v-10.97c0-.234-.14-.468-.375-.609a.532.532 0 00-.375-.14c-.14 0-.234.047-.328.047l-3.188 1.36c-.328.187-.75.046-.89-.282L1.569 6.533a.664.664 0 01-.047-.515c.047-.14.187-.282.375-.375L9.63 1.658c1.172 1.22 3.188 1.922 5.39 1.922 2.204 0 4.173-.703 5.345-1.922L28.1 5.643c.188.093.328.234.375.375a.665.665 0 01-.047.515z" fill="#5C8EE6"/></svg>