<svg width="200" height="63" fill="none" xmlns="http://www.w3.org/2000/svg"><g clip-path="url(#clip0_191_2493)"><path fill-rule="evenodd" clip-rule="evenodd" d="M31.418 6.99c3.276 0 6.4.645 9.255 1.815V31.17a9.179 9.179 0 01-14.882 7.192v8.126a16.304 16.304 0 005.704 1.023c9.969 0 16.383-7.871 16.383-17.425V4.652A31.272 31.272 0 0031.418 0C14.066 0 0 14.066 0 31.418c0 9.91 4.588 18.747 11.755 24.506v-10.01A24.319 24.319 0 016.99 31.418c0-13.49 10.936-24.427 24.427-24.427z" fill="#292D33"/><path fill-rule="evenodd" clip-rule="evenodd" d="M31.517 55.867c-3.276 0-6.401-.645-9.255-1.815V31.69a9.179 9.179 0 0114.882-7.193v-8.125a16.301 16.301 0 00-5.704-1.024c-9.969 0-16.383 7.871-16.383 17.425v25.434a31.27 31.27 0 0016.46 4.651c17.352 0 31.418-14.066 31.418-31.418 0-9.91-4.587-18.747-11.754-24.505v10.01a24.319 24.319 0 014.764 14.495c0 13.49-10.937 24.428-24.428 24.428z" fill="#5C8EE6"/><path d="M101.862 32.22c0 .15-.06.272-.151.363a.577.577 0 01-.394.151h-3.209a.502.502 0 01-.363-.151.73.73 0 01-.212-.364l-1.392-5.751h-6.963l-1.392 5.751a.725.725 0 01-.212.364.502.502 0 01-.363.151H84a.576.576 0 01-.393-.151.502.502 0 01-.151-.364c0-.03 0-.03.03-.06v-.09l4.965-18.98c.181-.697.454-1.273.787-1.666a4.033 4.033 0 011.12-.938 3.566 3.566 0 011.21-.394c.394-.06.758-.091 1.09-.091.334 0 .697.03 1.12.091.394.06.818.182 1.212.394.393.212.756.544 1.09.938.332.393.605.969.786 1.665l4.965 18.98c0 .03 0 .06.03.091v.06zm-8.718-18.194a.972.972 0 00-.151-.393c-.061-.06-.182-.091-.334-.091-.15 0-.272.03-.332.09a.966.966 0 00-.152.395l-2.18 8.99h5.328l-2.179-8.99zm23.703 17.891c0 .212-.031.363-.122.454-.091.09-.272.15-.484.181-.212.06-.545.122-.938.152-.424.06-.878.121-1.363.151l-1.483.091c-.514.03-.969.03-1.362.03-.999 0-1.907-.09-2.755-.242a5.377 5.377 0 01-2.21-.938c-.636-.454-1.12-1.06-1.483-1.877s-.545-1.847-.545-3.149V10.848c0-.151.06-.303.182-.424a.597.597 0 01.424-.182h2.996c.152 0 .303.061.424.182.121.12.182.273.182.424V26.77c0 1 .182 1.696.514 2.06.334.362.969.544 1.847.544h5.57c.151 0 .303.06.424.181a.599.599 0 01.182.424v1.938zm7.083.212a.598.598 0 01-.182.424.596.596 0 01-.424.181h-2.996a.596.596 0 01-.424-.181.598.598 0 01-.182-.424V10.818c0-.152.061-.303.182-.425a.725.725 0 01.424-.15h2.996c.152 0 .303.06.424.15a.599.599 0 01.182.425v21.31zm21.25.09c0 .152-.06.273-.151.364a.573.573 0 01-.394.151h-3.208a.501.501 0 01-.364-.151.73.73 0 01-.211-.364l-1.393-5.751h-6.962l-1.393 5.751a.725.725 0 01-.212.364.5.5 0 01-.363.151h-3.209a.574.574 0 01-.393-.151.502.502 0 01-.152-.364c0-.03 0-.03.031-.06v-.091l4.964-18.98c.182-.696.454-1.271.787-1.665a4.036 4.036 0 011.12-.938 3.568 3.568 0 011.211-.394c.394-.06.757-.091 1.09-.091.333 0 .696.03 1.12.091.394.06.817.182 1.211.394.394.212.756.544 1.09.938.332.393.605.969.787 1.665l4.964 18.98c0 .03 0 .06.03.091v.06zm-8.718-18.193a.97.97 0 00-.151-.393c-.061-.06-.182-.091-.333-.091-.151 0-.273.03-.333.09a.955.955 0 00-.151.394l-2.18 8.99h5.328l-2.18-8.99zm28.576 17.497a1.187 1.187 0 01-1.21 1.211h-3.058c-.363 0-.696-.06-.999-.151-.333-.091-.605-.394-.848-.939l-6.72-14.742c-.091-.151-.181-.242-.272-.242-.091 0-.151.09-.151.242v15.227a.723.723 0 01-.152.424.596.596 0 01-.423.181h-2.574a.596.596 0 01-.423-.181.594.594 0 01-.182-.424V11.453a1.19 1.19 0 011.211-1.21h3.269c.333 0 .575.06.787.181.182.12.363.394.545.787l7.053 15.56c.061.15.152.242.242.242.091 0 .152-.091.152-.273V10.818c0-.394.182-.576.575-.576h2.603c.394 0 .575.182.575.576v20.705zm17.921.273c0 .212-.06.363-.181.454a1.47 1.47 0 01-.485.242c-.121.03-.333.09-.605.12-.303.062-.666.122-1.09.183-.424.03-.908.09-1.422.12-.515.031-1.091.061-1.666.061-.908 0-1.876-.12-2.876-.393a7.123 7.123 0 01-2.754-1.453c-.848-.697-1.514-1.635-2.089-2.816-.545-1.18-.817-2.724-.817-4.601v-4.45c0-1.907.272-3.45.817-4.662.575-1.18 1.241-2.119 2.089-2.815.817-.696 1.756-1.15 2.754-1.423 1-.242 1.968-.363 2.876-.363.575 0 1.151.03 1.666.06.514.031.998.092 1.422.122.424.06.787.121 1.09.181.272.061.484.091.605.122.212.06.364.12.485.212.121.09.181.272.181.484v2.028c0 .182-.03.333-.121.454s-.272.181-.484.181h-.061c-.272-.03-.575-.06-.938-.09-.394-.03-.787-.03-1.211-.06-.424-.03-.848-.03-1.302-.061-.454-.03-.878-.03-1.271-.03-.636 0-1.241.09-1.756.272a3.645 3.645 0 00-1.392.939c-.394.453-.696 1.028-.908 1.755-.212.727-.334 1.635-.334 2.694v4.45c0 1.06.122 1.938.334 2.664.212.727.514 1.302.908 1.756.393.454.847.757 1.392.938.515.212 1.12.303 1.756.303.393 0 .817 0 1.271-.03.454-.03.878-.03 1.302-.061.424-.03.817-.06 1.211-.091.363-.03.666-.03.938-.06h.061c.212 0 .393.06.484.181.091.121.121.273.121.454v2.029zm17.043.12c0 .213-.03.364-.121.455-.091.09-.272.15-.485.181-.242.03-.514.091-.787.122a8.61 8.61 0 01-1.089.15c-.454.031-.969.092-1.575.122-.635.03-1.392.03-2.3.03-.999 0-1.907-.09-2.754-.242a5.204 5.204 0 01-2.21-.938 4.476 4.476 0 01-1.514-1.877c-.363-.817-.545-1.847-.545-3.149V16.206c0-1.302.182-2.33.545-3.149.363-.817.878-1.453 1.514-1.907.605-.453 1.362-.757 2.21-.908a15.54 15.54 0 012.754-.242c.908 0 1.665 0 2.3.03.606.03 1.121.091 1.575.122.423.03.787.09 1.089.12.273.061.545.121.787.152.213.03.394.09.485.182.091.09.121.242.121.454v1.937a.598.598 0 01-.182.424.595.595 0 01-.424.182h-6.175c-.878 0-1.513.181-1.846.545-.364.363-.545 1.059-.545 2.058v3.27h8.204c.151 0 .302.06.423.18a.598.598 0 01.182.425v2.179a.599.599 0 01-.182.424.596.596 0 01-.423.181h-8.204v3.905c0 1 .181 1.696.545 2.06.333.362.968.544 1.846.544h6.175c.152 0 .304.06.424.181a.599.599 0 01.182.424v1.938z" fill="#292D33"/><path d="M94.109 42.838c0 .85-.155 1.564-.445 2.143a3.737 3.737 0 01-1.235 1.39c-.502.367-1.1.617-1.757.753a9.584 9.584 0 01-2.142.232c-.25 0-.54-.02-.888-.04-.328-.018-.618-.018-.83-.038v5.038a.462.462 0 01-.097.27.38.38 0 01-.27.116h-1.93a.382.382 0 01-.27-.115.382.382 0 01-.116-.27V39.034c0-.193.058-.328.173-.424a.858.858 0 01.444-.154 26.732 26.732 0 011.738-.193 35.056 35.056 0 012.065-.058c.734 0 1.448.077 2.123.212a4.766 4.766 0 011.757.733c.522.348.927.811 1.235 1.37.29.58.445 1.294.445 2.144v.173zm-2.683-.193c0-.81-.232-1.39-.715-1.718-.482-.347-1.216-.52-2.181-.52h-.386c-.174.018-.329.018-.502.018-.174.02-.328.02-.463.02-.155.019-.27.019-.367.038v4.614h.367c.154.02.328.02.501.02.174.018.328.018.503.018.154.02.27.02.347.02 1.042 0 1.795-.193 2.239-.58.444-.385.657-.965.657-1.756v-.174zm15.211 9.826c0 .154-.077.231-.232.231h-2.355a.275.275 0 01-.232-.115c-.057-.078-.096-.174-.154-.27l-2.78-5.135h-.27c-.251 0-.56-.02-.888-.039-.328-.02-.618-.02-.83-.038v5.211a.465.465 0 01-.096.27.382.382 0 01-.271.116h-1.93a.38.38 0 01-.27-.115.381.381 0 01-.116-.27V39.034c0-.193.058-.328.173-.424a.859.859 0 01.445-.154c.501-.078 1.08-.136 1.737-.193a35.024 35.024 0 012.065-.058c.734 0 1.448.077 2.124.212a5.535 5.535 0 011.756.733c.522.328.927.773 1.236 1.332.289.56.444 1.255.444 2.085v.174c0 1.023-.232 1.872-.715 2.51-.463.636-1.1 1.119-1.91 1.428l3.03 5.636a.37.37 0 01.039.155zm-3.127-9.903c0-.733-.232-1.254-.715-1.583-.482-.328-1.216-.482-2.181-.482h-.386c-.174.019-.328.019-.502.019-.174.02-.328.02-.463.02-.155.018-.27.018-.367.038v4.343h.367c.154.02.328.02.501.02.175.019.329.019.503.019.154.019.27.019.347.019 1.004 0 1.737-.154 2.2-.482.464-.329.696-.908.696-1.757v-.174zm15.52 4.266c0 1.062-.136 1.989-.406 2.741-.289.753-.656 1.37-1.158 1.853a4.485 4.485 0 01-1.737 1.081c-.656.232-1.39.348-2.181.348-.811 0-1.545-.116-2.201-.348a4.478 4.478 0 01-1.737-1.08c-.483-.483-.869-1.1-1.14-1.854-.289-.752-.424-1.68-.424-2.74v-2.607c0-1.061.135-1.969.424-2.74.271-.754.657-1.39 1.14-1.873a4.444 4.444 0 011.737-1.062c.656-.232 1.39-.347 2.201-.347.791 0 1.525.115 2.181.347a4.447 4.447 0 011.737 1.062c.502.482.869 1.12 1.158 1.872.27.772.406 1.68.406 2.741v2.606zm-2.684-2.606c0-1.293-.231-2.22-.694-2.818-.444-.58-1.159-.869-2.104-.869-.966 0-1.68.29-2.124.869-.463.598-.695 1.525-.695 2.818v2.606c0 1.293.232 2.22.695 2.8.444.598 1.158.887 2.124.887.945 0 1.66-.29 2.104-.888.463-.579.694-1.506.694-2.799v-2.606zm15.598 2.722c0 1.911-.522 3.378-1.583 4.382-1.043 1.023-2.548 1.525-4.478 1.525-.367 0-.715 0-1.101-.02-.386-.019-.753-.038-1.1-.057-.367-.02-.676-.058-.965-.078-.29-.019-.522-.058-.657-.077-.173-.02-.289-.077-.366-.173-.097-.097-.136-.232-.136-.425V39.035c0-.193.039-.328.136-.424.077-.097.193-.154.366-.174.135-.02.367-.058.657-.077.289-.02.598-.058.965-.077.347-.02.714-.039 1.1-.058.386-.02.734-.02 1.101-.02 1.93 0 3.435.502 4.478 1.506 1.061 1.023 1.583 2.49 1.583 4.401v2.838zm-2.683-2.838c0-.714-.078-1.312-.251-1.776a3.028 3.028 0 00-.715-1.138 2.797 2.797 0 00-1.08-.58 6.04 6.04 0 00-1.352-.154c-.367 0-.676 0-.927.02-.25.019-.482.019-.694.038V50.56c.212.02.444.02.694.038.251.02.56.02.927.02.483 0 .927-.058 1.352-.174.405-.096.771-.29 1.08-.579a2.8 2.8 0 00.715-1.12c.173-.463.251-1.061.251-1.776v-2.857zm15.693 3.282c0 1.023-.135 1.892-.386 2.587-.27.695-.637 1.255-1.1 1.68a4.18 4.18 0 01-1.68.906c-.656.194-1.37.29-2.142.29a7.343 7.343 0 01-2.124-.29 3.946 3.946 0 01-1.679-.907c-.483-.424-.849-.984-1.1-1.68-.271-.694-.406-1.563-.406-2.586v-8.667a.38.38 0 01.116-.27.461.461 0 01.271-.097h1.911a.46.46 0 01.27.097.382.382 0 01.116.27v8.686c0 .54.038 1.024.115 1.429.078.405.213.753.425 1.023.193.27.463.463.792.598.328.135.772.193 1.293.193.521 0 .946-.058 1.293-.193a1.94 1.94 0 00.811-.598c.193-.27.328-.618.406-1.023.077-.405.115-.888.115-1.429v-8.686a.38.38 0 01.116-.27.46.46 0 01.27-.097h1.911c.097 0 .193.039.27.097a.378.378 0 01.116.27v8.667zm11.332 4.71c0 .135-.039.232-.116.29a.925.925 0 01-.309.154c-.077.02-.212.058-.386.077-.193.039-.425.078-.695.116-.27.02-.579.058-.907.078-.329.018-.695.038-1.062.038a6.962 6.962 0 01-1.834-.251 4.548 4.548 0 01-1.757-.926c-.54-.444-.964-1.043-1.332-1.796-.347-.753-.521-1.737-.521-2.934v-2.838c0-1.216.174-2.2.521-2.972.368-.753.792-1.351 1.332-1.796a4.499 4.499 0 011.757-.907 7.816 7.816 0 011.834-.231c.367 0 .733.019 1.062.038.328.02.637.058.907.077.27.04.502.078.695.116.174.039.309.058.386.077a.931.931 0 01.309.135c.077.058.116.174.116.31v1.293a.47.47 0 01-.078.29c-.057.076-.173.115-.308.115h-.039a23.585 23.585 0 00-.599-.058c-.25-.02-.501-.02-.771-.039-.271-.019-.541-.019-.831-.038-.289-.02-.559-.02-.81-.02-.406 0-.792.058-1.12.174a2.339 2.339 0 00-.888.599c-.251.29-.444.656-.579 1.12-.135.463-.212 1.042-.212 1.717v2.838c0 .676.077 1.235.212 1.699.135.463.328.83.579 1.12.251.29.541.482.888.598.328.135.714.193 1.12.193.251 0 .521 0 .81-.02.29-.019.56-.019.831-.038l.771-.058c.232-.02.425-.02.599-.039h.039c.135 0 .251.04.308.116a.465.465 0 01.078.29v1.293zm11.582-11.852a.312.312 0 01-.116.25.463.463 0 01-.27.097h-3.378v11.717a.383.383 0 01-.116.27.382.382 0 01-.27.117h-1.911a.382.382 0 01-.271-.116.383.383 0 01-.116-.27V40.598h-3.378a.463.463 0 01-.27-.096.312.312 0 01-.116-.251v-1.525a.38.38 0 01.116-.27.46.46 0 01.27-.097h9.44a.46.46 0 01.27.097.382.382 0 01.116.27v1.525zm4.614 12.064a.383.383 0 01-.116.27.382.382 0 01-.271.117h-1.911a.382.382 0 01-.27-.116.383.383 0 01-.116-.27v-13.59a.38.38 0 01.116-.27.46.46 0 01.27-.097h1.911c.097 0 .194.039.271.097a.382.382 0 01.116.27v13.59zm13.493-5.482c0 1.062-.135 1.989-.406 2.741-.289.753-.656 1.37-1.158 1.853a4.493 4.493 0 01-1.737 1.081 6.55 6.55 0 01-2.182.348c-.81 0-1.544-.116-2.2-.348a4.49 4.49 0 01-1.738-1.08c-.482-.483-.868-1.1-1.138-1.854-.29-.752-.425-1.68-.425-2.74v-2.607c0-1.061.135-1.969.425-2.74.27-.754.656-1.39 1.138-1.873a4.455 4.455 0 011.738-1.062c.656-.232 1.39-.347 2.2-.347.792 0 1.525.115 2.182.347a4.454 4.454 0 011.737 1.062c.502.482.869 1.12 1.158 1.872.271.772.406 1.68.406 2.741v2.606zm-2.684-2.606c0-1.293-.231-2.22-.695-2.818-.444-.58-1.158-.869-2.104-.869-.965 0-1.679.29-2.123.869-.463.598-.695 1.525-.695 2.818v2.606c0 1.293.232 2.22.695 2.8.444.598 1.158.887 2.123.887.946 0 1.66-.29 2.104-.888.464-.579.695-1.506.695-2.799v-2.606zm16.061 7.703a.758.758 0 01-.772.772h-1.95c-.231 0-.444-.04-.637-.097-.212-.058-.386-.25-.54-.598l-4.286-9.401c-.058-.097-.116-.154-.173-.154-.058 0-.097.057-.097.154v9.71a.468.468 0 01-.096.27.384.384 0 01-.271.115h-1.64a.382.382 0 01-.271-.115.383.383 0 01-.116-.27V39.131a.758.758 0 01.773-.772h2.084c.212 0 .367.039.502.116.116.077.232.25.348.502l4.498 9.922c.038.096.096.154.154.154.058 0 .096-.058.096-.173V38.727c0-.251.116-.367.367-.367h1.66c.251 0 .367.116.367.367V51.93z" fill="#5C8EE6"/></g><defs><clipPath id="clip0_191_2493"><path fill="#fff" d="M0 0h200v62.857H0z"/></clipPath></defs></svg>