<svg width="16" height="16" fill="none" xmlns="http://www.w3.org/2000/svg"><path d="M4.444 0A4.45 4.45 0 000 4.444v7.112A4.45 4.45 0 004.444 16h7.112A4.45 4.45 0 0016 11.556V4.444A4.45 4.45 0 0011.556 0H4.444zm0 1.778h7.112a2.67 2.67 0 012.666 2.666v7.112a2.67 2.67 0 01-2.666 2.666H4.444a2.67 2.67 0 01-2.666-2.666V4.444a2.67 2.67 0 012.666-2.666zm8 .889a.889.889 0 100 1.777.889.889 0 000-1.777zM8 3.556A4.45 4.45 0 003.556 8 4.45 4.45 0 008 12.444 4.45 4.45 0 0012.444 8 4.45 4.45 0 008 3.556zm0 1.777A2.67 2.67 0 0110.667 8 2.67 2.67 0 018 10.667 2.67 2.67 0 015.333 8 2.67 2.67 0 018 5.333z" fill="#5C8EE6"/></svg>