<svg width="16" height="12" fill="none" xmlns="http://www.w3.org/2000/svg"><path d="M.313 3.969c.718.562 1.625 1.25 4.812 3.562C5.75 8 6.906 9.031 8 9.031c1.125 0 2.25-1.031 2.906-1.5 3.188-2.312 4.094-3 4.813-3.562.125-.094.281 0 .281.156V10.5c0 .844-.656 1.5-1.5 1.5h-13A1.5 1.5 0 010 10.5V4.125c0-.156.188-.25.313-.156zM8 8c-.719.031-1.75-.906-2.281-1.281-4.157-3-4.469-3.282-5.407-4.032A.711.711 0 010 2.095V1.5C0 .687.688 0 1.5 0h13A1.5 1.5 0 0116 1.5v.594c0 .25-.094.469-.281.594-.938.75-1.25 1.03-5.406 4.03C9.78 7.095 8.75 8.032 8 8z" fill="#5C8EE6"/></svg>