<svg width="140" height="121" fill="none" xmlns="http://www.w3.org/2000/svg"><path d="M98.028 26.416H84.452l-3.45-5.543-6.675-10.352L58.49 35.127l-7.297 11.426-5.94 9.277-7.296 11.37-5.996 9.277-7.297 11.426h-13.52l7.297-11.426 5.94-9.277 7.297-11.37 5.94-9.276L67.538 0h13.576l6.618 10.351 6.788 10.522 3.507 5.543z" fill="#5C8EE5"/><path d="M137.511 87.903H37.221l8.088-11.426 5.94-9.277 7.296-11.37 5.996-9.276 7.297-11.427h31.847l7.297 11.426H78.061l-5.94 9.277-7.297 11.37-5.94 9.277h57.754l-5.939-9.277h-34.11l7.58-11.37h32.752l7.354 11.37 5.939 9.277 7.297 11.426zM19.855 120.089l-1.64-2.942H9.22l2.206-4.129h4.639l-3.281-6.165-7.07 13.236H0l9.842-17.818c.51-.962 1.301-1.414 2.32-1.414h1.188c.961 0 1.753.452 2.262 1.414l9.842 17.818h-5.6zm15.046 0c-1.47 0-2.828-.226-4.073-.679a9.344 9.344 0 01-3.224-1.98 8.311 8.311 0 01-2.15-2.998c-.509-1.188-.735-2.489-.735-3.959 0-1.414.226-2.772.735-3.903a9.06 9.06 0 012.15-3.055 9.375 9.375 0 013.224-1.98c1.245-.452 2.602-.678 4.073-.678h10.295v4.921H34.562c-.68 0-1.301.113-1.867.339-.622.226-1.075.566-1.527.962-.396.452-.736.905-.962 1.527a4.984 4.984 0 00-.34 1.867c0 .679.114 1.301.34 1.923.226.566.566 1.018.962 1.414.452.453.905.735 1.527.962a4.987 4.987 0 001.867.339h5.713v-2.602h-6.222v-4.129h11.143v11.709H34.901zm27.604 0v-14.311h-7.127v-4.921h19.345v4.921h-7.07v14.311h-5.148zm21.382-7.58v-4.129h11.37v4.129h-11.37zm-6.901 7.58v-19.232h18.44v4.921H82.133v9.333h13.35v4.978H76.986zm31.111 0c-1.527 0-2.885-.226-4.129-.679-1.245-.452-2.32-1.131-3.168-1.98a8.31 8.31 0 01-2.15-2.998c-.509-1.188-.791-2.489-.791-3.959 0-1.414.282-2.772.791-3.903a9.06 9.06 0 012.15-3.055c.848-.848 1.923-1.527 3.168-1.98 1.244-.452 2.602-.678 4.129-.678h9.39v4.921h-9.786a4.99 4.99 0 00-1.867.339 4.424 4.424 0 00-1.47.962c-.396.452-.736.905-.962 1.527a4.99 4.99 0 00-.339 1.867c0 .679.113 1.301.339 1.923.226.566.566 1.018.962 1.414.396.453.905.735 1.47.962a4.99 4.99 0 001.867.339h9.786v4.978h-9.39zm26.756 0v-7.467h-7.524v-4.695h7.524v-7.07H140v19.232h-5.147zm-14.481 0v-19.232h5.204v19.232h-5.204z" fill="#5C8EE5"/></svg>