<svg width="103" height="140" fill="none" xmlns="http://www.w3.org/2000/svg"><path d="M16.115 121.929a.414.414 0 01-.135.328.469.469 0 01-.347.125h-2.805a.436.436 0 01-.318-.135.662.662 0 01-.183-.318l-1.224-5.031H5.012l-1.224 5.031a.663.663 0 01-.183.318.436.436 0 01-.318.135H.482a.469.469 0 01-.347-.125.414.414 0 01-.135-.328c0-.019.01-.039.01-.048a.19.19 0 00.019-.087l4.347-16.616c.154-.617.385-1.098.684-1.455.299-.347.626-.617.973-.81a3.288 3.288 0 011.06-.356 7.45 7.45 0 01.964-.077c.28 0 .607.029.964.077.366.058.723.173 1.06.356.347.193.665.463.974.81.298.357.53.838.684 1.455l4.347 16.616c0 .039.01.067.01.087a.075.075 0 01.019.048zM8.48 106.007c-.038-.164-.077-.27-.135-.337-.048-.058-.144-.087-.289-.087-.144 0-.24.029-.289.087-.058.067-.096.173-.135.337l-1.908 7.865h4.665l-1.909-7.865zm20.752 15.662c0 .192-.039.327-.116.395a.894.894 0 01-.414.154 4.897 4.897 0 01-.839.145c-.357.048-.752.086-1.176.125-.424.038-.858.058-1.3.077-.444.019-.84.029-1.196.029-.858 0-1.667-.068-2.41-.212-.741-.145-1.387-.415-1.927-.81-.55-.395-.983-.954-1.301-1.657-.318-.704-.482-1.62-.482-2.757v-13.936c0-.145.058-.27.164-.376a.503.503 0 01.366-.154h2.622a.51.51 0 01.376.154.518.518 0 01.163.376v13.936c0 .887.145 1.484.444 1.802.299.319.838.482 1.619.482h4.877a.49.49 0 01.366.155.518.518 0 01.164.375v1.697zm6.197.183c0 .144-.048.26-.154.366a.519.519 0 01-.376.164h-2.622a.498.498 0 01-.366-.164.498.498 0 01-.164-.366v-18.659a.48.48 0 01.164-.357.518.518 0 01.366-.144H34.9c.144 0 .27.048.376.144a.47.47 0 01.154.357v18.659zm18.601.077c0 .145-.038.251-.125.328a.469.469 0 01-.347.125h-2.815a.43.43 0 01-.308-.135.68.68 0 01-.193-.318l-1.214-5.031h-6.1l-1.215 5.031a.751.751 0 01-.183.318.47.47 0 01-.318.135h-2.815a.5.5 0 01-.347-.125c-.086-.077-.125-.183-.125-.328 0-.019 0-.039.01-.048.01-.02.01-.048.01-.087l4.346-16.616c.164-.617.395-1.098.694-1.455.299-.347.617-.617.964-.81a3.45 3.45 0 011.06-.356 7.58 7.58 0 01.973-.077c.28 0 .598.029.964.077a3.37 3.37 0 011.06.356c.347.193.665.463.964.81.299.357.53.838.694 1.455l4.347 16.616c0 .039 0 .067.01.087.009.009.009.029.009.048zm-7.624-15.922a.953.953 0 00-.134-.337c-.058-.058-.155-.087-.29-.087-.144 0-.24.029-.298.087a.815.815 0 00-.126.337l-1.908 7.865h4.665l-1.909-7.865zm25.011 15.315c0 .299-.097.549-.299.752a1.064 1.064 0 01-.761.308h-2.68c-.308 0-.607-.039-.886-.125-.27-.077-.511-.357-.723-.829l-5.889-12.905c-.068-.145-.145-.212-.231-.212-.097 0-.135.067-.135.212v13.329c0 .144-.048.26-.145.366a.478.478 0 01-.356.164h-2.256a.519.519 0 01-.376-.164.489.489 0 01-.154-.366v-18.1a.99.99 0 01.309-.752c.202-.202.453-.308.751-.308h2.863c.28 0 .51.048.675.154.163.106.327.337.491.694l6.168 13.618c.058.145.126.212.212.212.097 0 .135-.077.135-.241v-13.936c0-.337.174-.501.501-.501h2.285c.337 0 .5.164.5.501v18.129zm15.69.241c0 .192-.058.327-.164.404-.106.087-.24.145-.424.203-.106.038-.28.077-.54.116-.26.048-.568.086-.944.134-.366.049-.78.087-1.243.116a17.14 17.14 0 01-1.456.058c-.79 0-1.638-.116-2.515-.347a6.187 6.187 0 01-2.42-1.253c-.732-.617-1.33-1.436-1.811-2.487-.482-1.04-.723-2.38-.723-4.019v-3.903c0-1.658.241-3.017.723-4.067.482-1.051 1.08-1.879 1.812-2.477a6.145 6.145 0 012.419-1.234 10.34 10.34 0 012.516-.327c.51 0 1.002.019 1.455.048.462.038.877.077 1.243.125.376.039.684.087.945.145.26.048.433.086.54.106.183.048.317.115.423.202.106.077.164.212.164.405v1.773a.671.671 0 01-.115.405c-.087.106-.222.154-.415.154h-.058c-.221-.019-.5-.038-.829-.067-.327-.019-.674-.048-1.05-.068-.366-.009-.752-.029-1.137-.048a22.847 22.847 0 00-1.118-.029c-.56 0-1.08.087-1.542.251a2.818 2.818 0 00-1.205.829c-.337.376-.607.886-.8 1.522-.193.637-.29 1.417-.29 2.352v3.903c0 .916.097 1.687.29 2.323.193.636.463 1.157.8 1.542.328.386.732.665 1.205.839.462.164.983.25 1.542.25.356 0 .732-.009 1.118-.029l1.137-.057c.376-.01.723-.039 1.05-.058.328-.029.608-.048.83-.068h.057c.193 0 .328.049.415.155.077.106.115.24.115.395v1.783zm14.92.106c0 .192-.039.327-.116.395a.896.896 0 01-.414.154c-.212.039-.444.077-.704.125a21.8 21.8 0 01-.954.116 29.56 29.56 0 01-1.378.096c-.54.029-1.205.039-2.005.039-.858 0-1.667-.068-2.41-.212-.742-.145-1.397-.415-1.946-.81-.55-.395-.983-.954-1.301-1.657-.328-.704-.482-1.62-.482-2.757v-9.243c0-1.137.154-2.052.482-2.756.318-.713.751-1.263 1.3-1.658.55-.395 1.205-.665 1.947-.809a12.632 12.632 0 012.41-.212c.8 0 1.465.009 2.005.038.54.029 1.002.058 1.378.097.376.029.694.077.954.115.26.048.492.087.704.116a.985.985 0 01.414.164c.077.067.116.202.116.395v1.696c0 .145-.058.27-.164.376a.488.488 0 01-.366.154H96.09c-.78 0-1.32.164-1.629.482-.308.318-.463.916-.463 1.802v2.863h7.181c.144 0 .26.048.366.154a.519.519 0 01.164.376v1.908a.516.516 0 01-.164.367.497.497 0 01-.366.163h-7.18v3.412c0 .887.154 1.484.462 1.802.308.319.848.482 1.629.482h5.407a.49.49 0 01.366.155.518.518 0 01.164.375v1.697zM9.85 131.23c0 .742-.135 1.368-.395 1.869a3.5 3.5 0 01-1.07 1.234 4.5 4.5 0 01-1.552.655 8.833 8.833 0 01-1.86.193c-.231 0-.491-.01-.78-.029-.3-.009-.54-.029-.733-.038v4.414a.345.345 0 01-.087.231.322.322 0 01-.231.106H1.455a.326.326 0 01-.24-.106.324.324 0 01-.107-.231v-11.633c0-.164.049-.289.145-.357a.773.773 0 01.405-.144c.433-.068.944-.126 1.522-.164a26.659 26.659 0 011.793-.058 8.91 8.91 0 011.86.183c.588.125 1.109.337 1.552.646.443.299.8.703 1.07 1.205.26.501.395 1.127.395 1.869v.155zm-2.352-.164c0-.714-.212-1.215-.636-1.513-.414-.309-1.05-.453-1.898-.453-.087 0-.203 0-.347.009-.135 0-.28.01-.425.019-.154 0-.289.01-.414.01a6.45 6.45 0 00-.318.029v4.038c.067 0 .173 0 .318.01.135 0 .28.01.434.019.154 0 .299.01.443.01.135.009.241.009.309.009.915 0 1.56-.163 1.956-.51.386-.338.578-.848.578-1.523v-.154zm13.32 8.597c0 .135-.068.202-.203.202h-2.062a.227.227 0 01-.203-.106 1.343 1.343 0 01-.134-.231l-2.439-4.501h-.231c-.231 0-.482-.01-.78-.019-.29-.02-.53-.039-.724-.049v4.569a.355.355 0 01-.096.231.292.292 0 01-.231.106h-1.687a.322.322 0 01-.231-.106.324.324 0 01-.106-.231v-11.633c0-.164.048-.289.144-.357a.77.77 0 01.395-.144c.444-.068.955-.126 1.523-.164a26.738 26.738 0 011.803-.058 8.9 8.9 0 011.86.193 4.728 4.728 0 011.542.636c.453.289.81.684 1.07 1.176.27.491.395 1.089.395 1.812v.154c0 .906-.203 1.629-.617 2.197a3.686 3.686 0 01-1.677 1.253l2.65 4.935c.03.029.039.077.039.135zm-2.737-8.674c0-.637-.212-1.099-.636-1.379-.425-.289-1.06-.424-1.9-.424-.095 0-.211 0-.346.01-.145 0-.29.01-.434.01-.144.009-.28.009-.414.019a5.73 5.73 0 00-.309.029v3.797c.068 0 .174 0 .309.01.144.009.289.009.443.019.154 0 .299.01.434.019h.318c.877 0 1.523-.135 1.928-.414.404-.289.607-.8.607-1.542v-.154zm13.579 3.739c0 .935-.115 1.735-.356 2.4-.25.665-.578 1.205-1.002 1.629a4.006 4.006 0 01-1.523.935 5.869 5.869 0 01-1.928.308c-.694 0-1.33-.106-1.918-.308a4.007 4.007 0 01-1.523-.935c-.424-.424-.751-.964-1.002-1.629-.24-.665-.357-1.465-.357-2.4v-2.284c0-.925.116-1.725.357-2.39.25-.675.578-1.215 1.002-1.639a4.007 4.007 0 011.523-.935 5.852 5.852 0 011.918-.308c.704 0 1.34.106 1.928.308a4.01 4.01 0 011.523.935c.424.424.751.964 1.002 1.639.24.665.357 1.465.357 2.39v2.284zm-2.341-2.284c0-1.128-.203-1.947-.608-2.458-.395-.511-1.021-.771-1.86-.771-.829 0-1.455.26-1.85.771-.405.511-.608 1.33-.608 2.458v2.284c0 1.128.203 1.947.608 2.458.395.511 1.021.771 1.85.771.839 0 1.465-.26 1.86-.771.405-.511.608-1.33.608-2.458v-2.284zm13.647 2.38c0 1.677-.453 2.959-1.379 3.846-.915.887-2.226 1.33-3.932 1.33-.308 0-.626-.01-.964-.019-.327-.01-.655-.029-.963-.048-.309-.029-.588-.049-.839-.068-.26-.029-.453-.048-.569-.067a.614.614 0 01-.337-.155c-.067-.077-.106-.202-.106-.375v-11.373c0-.164.039-.289.106-.366a.553.553 0 01.338-.155c.115-.019.308-.048.568-.067.25-.019.53-.048.839-.068.308-.019.636-.038.963-.048.338-.009.656-.019.964-.019 1.706 0 3.017.443 3.932 1.33.926.877 1.379 2.159 1.379 3.846v2.476zm-2.342-2.476c0-.627-.077-1.157-.232-1.562-.154-.414-.366-.742-.626-.983a2.26 2.26 0 00-.945-.511 4.641 4.641 0 00-1.175-.144c-.319 0-.588.009-.81.019-.231.01-.434.019-.607.029v8.79c.173.009.376.019.607.038.222.01.492.01.81.01.414 0 .81-.048 1.175-.145.367-.086.675-.26.945-.501.26-.25.472-.569.626-.983.155-.414.232-.935.232-1.571v-2.486zm13.734 2.872c0 .896-.116 1.648-.347 2.255-.232.617-.55 1.099-.964 1.474a3.646 3.646 0 01-1.475.8 6.672 6.672 0 01-1.86.251 6.741 6.741 0 01-1.87-.251 3.645 3.645 0 01-1.474-.8c-.405-.375-.723-.857-.954-1.474-.232-.607-.347-1.359-.347-2.255v-7.595a.28.28 0 01.096-.222.32.32 0 01.241-.096h1.667a.32.32 0 01.241.096.28.28 0 01.097.222v7.604c0 .482.038.906.106 1.263.067.347.183.646.366.886.173.241.405.415.694.521.299.116.675.173 1.137.173.444 0 .82-.057 1.118-.173.299-.106.54-.28.713-.521.174-.24.3-.539.367-.886a6.95 6.95 0 00.096-1.263v-7.604a.29.29 0 01.106-.222.314.314 0 01.231-.096h1.677c.087 0 .164.029.232.096a.289.289 0 01.106.222v7.595zm9.917 4.115c0 .125-.029.212-.096.27a1.08 1.08 0 01-.28.125 4.034 4.034 0 01-.337.077c-.164.029-.366.048-.607.077-.232.029-.502.058-.79.077a9.54 9.54 0 01-.935.039 6.423 6.423 0 01-1.6-.222 3.865 3.865 0 01-1.542-.8c-.463-.395-.849-.915-1.157-1.58-.308-.665-.463-1.523-.463-2.574v-2.476c0-1.061.155-1.928.463-2.603.308-.665.694-1.195 1.157-1.58a3.969 3.969 0 011.542-.781 6.394 6.394 0 011.6-.212c.327 0 .645.01.934.039.29.019.56.048.79.067.242.029.444.067.608.096.154.039.27.058.337.068.116.038.212.077.28.125.067.048.096.145.096.26v1.138a.427.427 0 01-.077.25c-.048.068-.135.106-.26.106h-.039c-.144-.009-.318-.029-.53-.048-.202-.01-.424-.029-.665-.039a17.59 17.59 0 01-.723-.038c-.25-.01-.491-.01-.713-.01a2.98 2.98 0 00-.993.154 1.83 1.83 0 00-.761.531c-.222.241-.386.559-.51.963-.126.415-.184.916-.184 1.514v2.476c0 .588.058 1.08.183 1.494.126.405.29.733.511.974.212.25.463.424.761.53.3.115.636.164.993.164.222 0 .463-.01.713-.02l.723-.029c.241-.009.463-.028.665-.048.212-.009.386-.029.53-.038h.039c.125 0 .212.038.26.106a.406.406 0 01.077.25v1.128zm10.139-10.37a.288.288 0 01-.106.221.335.335 0 01-.231.077h-2.959v10.265a.313.313 0 01-.096.231.343.343 0 01-.241.106h-1.677a.322.322 0 01-.232-.106.324.324 0 01-.106-.231v-10.265h-2.949a.345.345 0 01-.24-.077.279.279 0 01-.097-.221v-1.34a.28.28 0 01.096-.222.321.321 0 01.241-.096h8.26c.087 0 .164.029.231.096a.289.289 0 01.106.222v1.34zm4.038 10.563a.324.324 0 01-.106.231.322.322 0 01-.23.106h-1.678a.322.322 0 01-.231-.106.324.324 0 01-.106-.231v-11.903c0-.087.038-.164.106-.222a.315.315 0 01.231-.096h1.677c.087 0 .164.029.231.096a.289.289 0 01.106.222v11.903zm11.807-4.8c0 .935-.116 1.735-.357 2.4-.24.665-.578 1.205-1.002 1.629a4.007 4.007 0 01-1.523.935 5.852 5.852 0 01-1.918.308c-.703 0-1.34-.106-1.927-.308a3.97 3.97 0 01-1.514-.935c-.433-.424-.761-.964-1.002-1.629-.24-.665-.366-1.465-.366-2.4v-2.284c0-.925.125-1.725.366-2.39.241-.675.569-1.215 1.002-1.639a3.97 3.97 0 011.514-.935 5.869 5.869 0 011.927-.308c.694 0 1.33.106 1.918.308.588.203 1.09.511 1.523.935.424.424.761.964 1.002 1.639.241.665.357 1.465.357 2.39v2.284zm-2.342-2.284c0-1.128-.203-1.947-.607-2.458-.395-.511-1.022-.771-1.85-.771-.84 0-1.456.26-1.86.771-.406.511-.599 1.33-.599 2.458v2.284c0 1.128.193 1.947.598 2.458.405.511 1.022.771 1.86.771.829 0 1.456-.26 1.85-.771.405-.511.608-1.33.608-2.458v-2.284zm14.052 6.746a.658.658 0 01-.675.675h-1.706c-.202 0-.385-.029-.559-.077-.183-.048-.337-.231-.472-.53l-3.75-8.231c-.047-.096-.096-.135-.153-.135-.058 0-.077.039-.077.135v8.501a.355.355 0 01-.097.231.306.306 0 01-.231.106h-1.436a.322.322 0 01-.231-.106.324.324 0 01-.106-.231v-11.546c0-.193.067-.347.192-.482a.674.674 0 01.482-.193h1.831c.174 0 .319.038.425.106.105.067.212.212.317.434l3.933 8.683c.038.097.077.135.135.135.058 0 .086-.048.086-.144v-8.896c0-.212.107-.318.319-.318h1.455c.212 0 .318.106.318.318v11.565z" fill="#828A99"/><path fill-rule="evenodd" clip-rule="evenodd" d="M50.946 9.879c4.626 0 9.04.906 13.069 2.554v31.583c0 7.161-5.802 12.963-12.963 12.963-3.046 0-5.84-1.05-8.057-2.804v11.478a23.016 23.016 0 008.057 1.446c14.08 0 23.13-11.122 23.13-24.606V6.573A44.156 44.156 0 0050.947 0C26.436 0 6.573 19.864 6.573 44.373c0 13.994 6.477 26.475 16.596 34.61v-14.14a34.39 34.39 0 01-6.727-20.47c0-19.054 15.45-34.494 34.504-34.494z" fill="#828A99"/><path fill-rule="evenodd" clip-rule="evenodd" d="M51.08 78.896c-4.625 0-9.04-.906-13.068-2.564V44.75c0-7.152 5.802-12.963 12.963-12.963 3.045 0 5.84 1.05 8.057 2.814v-11.48a23.016 23.016 0 00-8.057-1.445c-14.081 0-23.14 11.112-23.14 24.605v35.92a44.216 44.216 0 0023.246 6.574c24.509 0 44.373-19.874 44.373-44.373 0-13.995-6.477-26.476-16.606-34.61v14.139a34.325 34.325 0 016.727 20.47c0 19.055-15.44 34.495-34.494 34.495z" fill="#828A99"/></svg>